# Blender 3.3.1
# www.blender.org
mtllib gizmo.mtl
o Cube
v -1.000000 -1.000000 -1.000000 1.0000 1.0000 1.0000
v -1.000000 -1.000000 1.000000 1.0000 1.0000 1.0000
v -1.000000 1.000000 -1.000000 1.0000 1.0000 1.0000
v -1.000000 1.000000 1.000000 1.0000 1.0000 1.0000
v 1.000000 -1.000000 -1.000000 1.0000 1.0000 1.0000
v 1.000000 -1.000000 1.000000 1.0000 1.0000 1.0000
v 1.000000 1.000000 -1.000000 1.0000 1.0000 1.0000
v 1.000000 1.000000 1.000000 1.0000 0.9058 0.9333
v 0.500000 2.000000 0.500000 1.0000 1.0000 1.0000
v 0.500000 2.000000 -0.500000 1.0000 1.0000 1.0000
v -0.500000 2.000000 0.500000 1.0000 1.0000 1.0000
v -0.500000 2.000000 -0.500000 1.0000 1.0000 1.0000
v 2.000000 0.500000 0.500000 1.0000 1.0000 1.0000
v 2.000000 0.500000 -0.500000 1.0000 1.0000 1.0000
v 2.000000 -0.500000 0.500000 1.0000 1.0000 1.0000
v 2.000000 -0.500000 -0.500000 1.0000 1.0000 1.0000
v -0.500000 -0.500000 2.000000 1.0000 1.0000 1.0000
v -0.500000 0.500000 2.000000 0.9804 0.9804 0.9804
v 0.500000 -0.500000 2.000000 0.9529 0.9529 0.9529
v 0.500000 0.500000 2.000000 0.9607 0.9607 0.9607
v 5.000000 0.500000 0.500000 0.9804 0.0314 0.2588
v 5.000000 0.500000 -0.500000 0.9882 0.0314 0.2627
v 5.000000 -0.500000 0.500000 1.0000 0.0314 0.2667
v 5.000000 -0.500000 -0.500000 1.0000 0.0314 0.2667
v 0.500000 5.000000 0.500000 0.0078 1.0000 0.3686
v 0.500000 5.000000 -0.500000 0.0078 1.0000 0.3686
v -0.500000 5.000000 0.500000 0.0078 1.0000 0.3686
v -0.500000 5.000000 -0.500000 0.0706 1.0000 0.4078
v 0.000000 -0.707107 5.000000 0.0824 0.0000 0.5843
v -0.707107 -0.000000 5.000000 0.2196 0.1490 0.9098
v 0.707107 0.000000 5.000000 0.0863 0.0000 0.6118
v -0.000000 0.707107 5.000000 0.1333 0.0000 0.9411
v 0.000000 -0.353553 5.250000 0.0980 0.0000 0.6785
v -0.353553 -0.000000 5.250000 0.0902 0.0000 0.5530
v 0.353553 0.000000 5.250000 0.1098 0.0000 0.7568
v -0.000000 0.353553 5.250000 0.1098 0.0000 0.7764
v 0.000000 -0.353553 5.750000 0.0784 0.0000 0.5451
v -0.353553 -0.000000 5.750000 0.1059 0.0000 0.5882
v 0.353553 0.000000 5.750000 0.0784 0.0000 0.5608
v -0.000000 0.353553 5.750000 0.0863 0.0000 0.5961
v 0.000000 -0.707107 6.000000 0.0941 0.0000 0.5608
v -0.707107 -0.000000 6.000000 0.1333 0.0000 0.8745
v 0.707107 0.000000 6.000000 0.0824 0.0000 0.5725
v -0.000000 0.707107 6.000000 0.1333 0.0000 0.9215
v 0.000000 -0.707107 7.000000 0.1020 0.0000 0.5882
v -0.707107 -0.000000 7.000000 0.1098 0.0000 0.7647
v 0.707107 0.000000 7.000000 0.1020 0.0000 0.7176
v -0.000000 0.707107 7.000000 0.0784 0.0000 0.5530
v 0.000000 -0.353553 7.250000 0.0784 0.0000 0.5490
v -0.353553 -0.000000 7.250000 0.0784 0.0000 0.5451
v 0.353553 0.000000 7.250000 0.0745 0.0000 0.5373
v -0.000000 0.353553 7.250000 0.0745 0.0000 0.5294
v 0.250000 5.000000 0.250000 0.0078 1.0000 0.3686
v 0.250000 5.000000 -0.250000 0.0078 1.0000 0.3686
v -0.250000 5.000000 0.250000 0.0078 1.0000 0.3686
v -0.250000 5.000000 -0.250000 0.0078 1.0000 0.3686
v 0.250000 5.500000 0.250000 0.0078 1.0000 0.3686
v 0.250000 5.500000 -0.250000 0.0078 1.0000 0.3686
v -0.250000 5.500000 0.250000 0.0078 1.0000 0.3686
v -0.250000 5.500000 -0.250000 0.0078 1.0000 0.3686
v 0.500000 5.760000 0.500000 0.0078 1.0000 0.3686
v 0.500000 5.760000 -0.500000 0.0078 1.0000 0.3686
v -0.500000 5.760000 0.500000 0.0078 1.0000 0.3686
v -0.500000 5.760000 -0.500000 0.0078 1.0000 0.3686
v 0.500000 6.760000 0.500000 0.0078 1.0000 0.3686
v 0.500000 6.760000 -0.500000 0.0078 1.0000 0.3686
v -0.500000 6.760000 0.500000 0.0510 1.0000 0.3921
v -0.500000 6.760000 -0.500000 0.0078 1.0000 0.3686
v 0.000000 7.010001 0.000000 0.0078 1.0000 0.3686
v 5.000000 0.250000 0.250000 0.9804 0.0314 0.2588
v 5.000000 0.250000 -0.250000 0.9843 0.0314 0.2588
v 5.000000 -0.250000 0.250000 1.0000 0.0314 0.2667
v 5.000000 -0.250000 -0.250000 1.0000 0.0314 0.2667
v 5.500000 0.250000 0.250000 0.2902 0.0118 0.1412
v 5.500000 0.250000 -0.250000 0.3725 0.0118 0.1530
v 5.500000 -0.250000 0.250000 0.5725 0.0196 0.1490
v 5.500000 -0.250000 -0.250000 0.8274 0.0745 0.2392
v 6.000000 -0.500000 -0.500000 0.9921 0.2235 0.4353
v 6.000000 -0.500000 0.500000 0.6157 0.0235 0.1608
v 6.000000 0.500000 -0.500000 0.5059 0.0157 0.1333
v 6.000000 0.500000 0.500000 0.4902 0.0157 0.1451
v 6.500000 -0.250000 -0.250000 0.8823 0.0275 0.2353
v 6.500000 -0.250000 0.250000 0.7490 0.0235 0.1961
v 6.500000 0.250000 -0.250000 0.3137 0.0078 0.0824
v 6.500000 0.250000 0.250000 0.2392 0.0078 0.0627
vn -0.0000 0.4472 0.8944
vn -0.8944 0.4472 -0.0000
vn 0.8944 0.4472 -0.0000
vn -0.0000 0.4472 -0.8944
vn 0.4472 -0.0000 0.8944
vn 0.4472 -0.8944 -0.0000
vn 0.4472 0.8944 -0.0000
vn 0.4472 -0.0000 -0.8944
vn -0.0000 0.8944 0.4472
vn 0.8944 -0.0000 0.4472
vn -0.8944 -0.0000 0.4472
vn -0.0000 -0.8944 0.4472
vn -0.0000 -1.0000 -0.0000
vn -0.0000 1.0000 -0.0000
vn -0.0000 -0.0000 -1.0000
vn -0.0000 -0.0000 1.0000
vn -1.0000 -0.0000 -0.0000
vn 1.0000 -0.0000 -0.0000
vn 0.5000 -0.5000 0.7071
vn -0.5000 0.5000 0.7071
vn 0.5000 0.5000 0.7071
vn -0.5000 -0.5000 0.7071
vn -0.7071 0.7071 -0.0000
vn 0.7071 0.7071 -0.0000
vn -0.7071 -0.7071 -0.0000
vn 0.7071 -0.7071 -0.0000
vn 0.5000 0.5000 -0.7071
vn -0.5000 -0.5000 -0.7071
vn 0.5000 -0.5000 -0.7071
vn -0.5000 0.5000 -0.7071
vn -0.0000 -0.6931 -0.7208
vn -0.0000 -0.6931 0.7208
vn -0.7208 -0.6931 -0.0000
vn 0.7208 -0.6931 -0.0000
vn -0.4472 0.8944 -0.0000
vn -0.0000 0.8944 -0.4472
vn -0.4472 -0.0000 0.8944
vn -0.4472 -0.8944 -0.0000
vn -0.4472 -0.0000 -0.8944
vn 0.7054 0.7054 0.0689
vn -0.0000 0.9976 -0.0689
vn -0.7054 0.7054 0.0689
vn -0.9976 -0.0000 -0.0689
vn -0.7054 -0.7054 0.0689
vn -0.0000 -0.9976 -0.0689
vn 0.7054 -0.7054 0.0689
vn 0.9976 -0.0000 -0.0689
vt 0.365105 0.000071
vt 0.226201 0.012893
vt 0.486434 0.090031
vt 0.360125 0.082932
vt 0.386524 0.145914
vt 0.325518 0.070851
vt 0.272183 0.103198
vt 0.335700 0.100959
vt 0.321472 0.141346
vt 0.346383 0.125798
vt 0.347820 0.114579
vt 0.358282 0.125007
vt 0.354462 0.111895
vt 0.315802 0.111513
vt 0.318553 0.103160
vt 0.305776 0.105705
vt 0.314742 0.095976
vt 0.507282 0.207722
vt 0.137496 0.095051
vt 0.399348 0.210955
vt 0.228186 0.150890
vt 0.311593 0.192529
vt 0.313826 0.104641
vt 0.314111 0.104010
vt 0.313185 0.104198
vt 0.313751 0.103505
vt 0.351385 0.119809
vt 0.351420 0.118960
vt 0.352172 0.119722
vt 0.351970 0.118787
vt 0.507282 0.691752
vt 0.000071 0.534623
vt 0.365815 0.645526
vt 0.137041 0.573735
vt 0.249864 0.607479
vt 0.434701 0.752378
vt 0.025882 0.630986
vt 0.336811 0.706475
vt 0.130750 0.639567
vt 0.236886 0.667653
vt 0.368079 0.861840
vt 0.025756 0.757518
vt 0.286537 0.814251
vt 0.119010 0.756203
vt 0.204630 0.775730
vt 0.336843 0.933360
vt 0.009836 0.828601
vt 0.261569 0.857277
vt 0.118984 0.805060
vt 0.196891 0.818011
vt 0.226889 0.999929
vt 0.063946 0.944940
vt 0.202589 0.926203
vt 0.132936 0.892276
vt 0.175181 0.890306
vt 0.150379 0.973200
vt 0.174408 0.966224
vt 0.144703 0.924774
vt 0.168655 0.921853
vt 0.351608 0.119511
vt 0.351600 0.119180
vt 0.351903 0.119476
vt 0.351842 0.119130
vt 0.351708 0.119371
vt 0.351703 0.119286
vt 0.351778 0.119363
vt 0.351764 0.119276
vt 0.351719 0.119344
vt 0.351720 0.119301
vt 0.351759 0.119341
vt 0.351753 0.119297
vt 0.351732 0.119328
vt 0.351732 0.119314
vt 0.351745 0.119327
vt 0.351743 0.119313
vt 0.351738 0.119321
vt 0.313751 0.104301
vt 0.313886 0.104060
vt 0.313520 0.104126
vt 0.313716 0.103867
vt 0.313725 0.104142
vt 0.313761 0.104081
vt 0.313671 0.104098
vt 0.313716 0.104034
vt 0.313723 0.104061
vt 0.313693 0.104087
vt 0.313742 0.104090
vt 0.313715 0.104117
vt 0.313718 0.104080
vt 0.313711 0.104089
vt 0.313725 0.104088
vt 0.313718 0.104097
s 0
usemtl 
f 4/5/1 8/9/1 9/10/1 11/12/1
f 4/5/2 11/12/2 12/13/2 3/4/2
f 8/9/3 7/8/3 10/11/3 9/10/3
f 7/8/4 3/4/4 12/13/4 10/11/4
f 8/9/5 6/7/5 15/16/5 13/14/5
f 6/7/6 5/6/6 16/17/6 15/16/6
f 7/8/7 8/9/7 13/14/7 14/15/7
f 5/6/8 7/8/8 14/15/8 16/17/8
f 8/9/9 4/5/9 18/20/9 20/22/9
f 6/7/10 8/9/10 20/22/10 19/21/10
f 2/3/11 17/18/11 18/20/11 4/5/11
f 6/7/12 19/21/12 17/19/12 2/2/12
f 15/16/13 16/17/13 24/26/13 23/25/13
f 14/15/14 13/14/14 21/23/14 22/24/14
f 16/17/15 14/15/15 22/24/15 24/26/15
f 13/14/16 15/16/16 23/25/16 21/23/16
f 11/12/17 27/29/17 28/30/17 12/13/17
f 9/10/18 10/11/18 26/28/18 25/27/18
f 10/11/15 12/13/15 28/30/15 26/28/15
f 11/12/16 9/10/16 25/27/16 27/29/16
f 3/4/15 7/8/15 5/6/15 1/1/15
f 1/1/13 5/6/13 6/7/13 2/2/13
f 3/4/17 1/1/17 2/3/17 4/5/17
f 31/34/19 35/39/19 33/37/19 29/32/19
f 32/35/20 30/33/20 34/38/20 36/40/20
f 31/34/21 32/35/21 36/40/21 35/39/21
f 29/31/22 33/36/22 34/38/22 30/33/22
f 36/40/23 34/38/23 38/43/23 40/45/23
f 35/39/24 36/40/24 40/45/24 39/44/24
f 33/36/25 37/41/25 38/43/25 34/38/25
f 35/39/26 39/44/26 37/42/26 33/37/26
f 39/44/27 40/45/27 44/50/27 43/49/27
f 37/41/28 41/46/28 42/48/28 38/43/28
f 39/44/29 43/49/29 41/47/29 37/42/29
f 40/45/30 38/43/30 42/48/30 44/50/30
f 43/49/24 44/50/24 48/55/24 47/54/24
f 41/46/25 45/51/25 46/53/25 42/48/25
f 43/49/26 47/54/26 45/52/26 41/47/26
f 44/50/23 42/48/23 46/53/23 48/55/23
f 45/51/22 49/56/22 50/57/22 46/53/22
f 47/54/19 51/58/19 49/56/19 45/52/19
f 48/55/20 46/53/20 50/57/20 52/59/20
f 47/54/21 48/55/21 52/59/21 51/58/21
f 49/56/16 51/58/16 52/59/16 50/57/16
f 26/28/14 28/30/14 56/63/14 54/61/14
f 27/29/14 25/27/14 53/60/14 55/62/14
f 27/29/14 55/62/14 56/63/14 28/30/14
f 25/27/14 26/28/14 54/61/14 53/60/14
f 55/62/17 59/66/17 60/67/17 56/63/17
f 53/60/18 54/61/18 58/65/18 57/64/18
f 54/61/15 56/63/15 60/67/15 58/65/15
f 55/62/16 53/60/16 57/64/16 59/66/16
f 58/65/31 60/67/31 64/71/31 62/69/31
f 59/66/32 57/64/32 61/68/32 63/70/32
f 59/66/33 63/70/33 64/71/33 60/67/33
f 57/64/34 58/65/34 62/69/34 61/68/34
f 62/69/15 64/71/15 68/75/15 66/73/15
f 63/70/16 61/68/16 65/72/16 67/74/16
f 63/70/17 67/74/17 68/75/17 64/71/17
f 61/68/18 62/69/18 66/73/18 65/72/18
f 67/74/9 65/72/9 69/76/9
f 67/74/35 69/76/35 68/75/35
f 65/72/7 66/73/7 69/76/7
f 66/73/36 68/75/36 69/76/36
f 24/26/18 22/24/18 71/78/18 73/80/18
f 21/23/18 23/25/18 72/79/18 70/77/18
f 23/25/18 24/26/18 73/80/18 72/79/18
f 22/24/18 21/23/18 70/77/18 71/78/18
f 72/79/13 73/80/13 77/84/13 76/83/13
f 71/78/14 70/77/14 74/81/14 75/82/14
f 73/80/15 71/78/15 75/82/15 77/84/15
f 70/77/16 72/79/16 76/83/16 74/81/16
f 75/82/35 74/81/35 81/88/35 80/87/35
f 74/81/37 76/83/37 79/86/37 81/88/37
f 76/83/38 77/84/38 78/85/38 79/86/38
f 77/84/39 75/82/39 80/87/39 78/85/39
f 80/87/7 81/88/7 85/92/7 84/91/7
f 79/86/6 78/85/6 82/89/6 83/90/6
f 81/88/5 79/86/5 83/90/5 85/92/5
f 78/85/8 80/87/8 84/91/8 82/89/8
f 82/89/18 84/91/18 85/92/18 83/90/18
f 31/34/40 20/22/40 32/35/40
f 20/22/41 18/20/41 32/35/41
f 32/35/42 18/20/42 30/33/42
f 18/20/43 17/18/43 30/33/43
f 30/33/44 17/18/44 29/31/44
f 17/19/45 19/21/45 29/32/45
f 29/32/46 19/21/46 31/34/46
f 20/22/47 31/34/47 19/21/47
